<svg width="25" height="19" viewBox="0 0 25 19" fill="none" xmlns="http://www.w3.org/2000/svg">
<g clip-path="url(#clip0)">
<path d="M9.91539 10.5226C10.0027 9.00573 10.765 7.66942 11.9151 6.72207C13.0429 5.79162 14.5609 5.2229 16.2173 5.2229C17.8719 5.2229 19.39 5.79162 20.5187 6.72207C21.6679 7.66933 22.4303 9.00573 22.5184 10.521C22.6056 12.0795 21.9626 13.5274 20.8348 14.6006C19.6848 15.6923 18.0489 16.3773 16.2173 16.3773C14.3856 16.3773 12.7465 15.6923 11.5973 14.6006C10.4686 13.5273 9.82726 12.0794 9.91539 10.5226Z" fill="white"/>
<path d="M12.9845 10.6579C13.0292 9.87964 13.4204 9.19391 14.0105 8.70786C14.5892 8.23048 15.3681 7.93863 16.218 7.93863C17.067 7.93863 17.846 8.23048 18.4251 8.70786C19.0148 9.19391 19.4059 9.87964 19.4511 10.6572C19.4959 11.4568 19.1661 12.1997 18.5873 12.7504C17.9972 13.3105 17.1578 13.662 16.218 13.662C15.2782 13.662 14.4371 13.3105 13.8474 12.7504C13.2683 12.1997 12.9393 11.4568 12.9845 10.6579Z" fill="#265787"/>
<path d="M7.85017 12.2568C7.85579 12.5619 7.95564 13.1551 8.10554 13.6183C8.42045 14.5987 8.95464 15.5057 9.69798 16.305C10.4608 17.1267 11.4001 17.7867 12.4852 18.2552C13.6255 18.7472 14.8612 18.998 16.1446 18.996C17.426 18.9942 18.6617 18.7386 19.8021 18.2427C20.887 17.7697 21.8255 17.1069 22.5871 16.2848C23.33 15.4822 23.8633 14.5736 24.1792 13.5931C24.3379 13.0978 24.4382 12.595 24.4784 12.0905C24.5178 11.5928 24.5012 11.0924 24.4289 10.5983C24.2875 9.62898 23.9433 8.71954 23.4133 7.89048C22.9286 7.12866 22.3039 6.46174 21.5609 5.90032L21.5626 5.89914L14.0654 0.290025C14.0586 0.285093 14.053 0.279795 14.0458 0.275227C13.554 -0.092715 12.7268 -0.0914361 12.1858 0.277237C11.6389 0.650112 11.5763 1.26679 12.063 1.65565L12.0609 1.65775L15.188 4.13542L5.65707 4.14529H5.64432C4.85654 4.1462 4.09932 4.6498 3.94932 5.2862C3.79529 5.93458 4.33042 6.47242 5.14951 6.47535L5.1482 6.47818L9.97914 6.46905L1.35864 12.9163C1.34767 12.9242 1.33576 12.9324 1.32564 12.9403C0.512448 13.547 0.249573 14.5559 0.761729 15.1943C1.28157 15.8436 2.38689 15.8448 3.20851 15.1981L7.91326 11.4464C7.91326 11.4464 7.84464 11.9528 7.85017 12.2568ZM19.9397 13.9528C18.9703 14.9151 17.6131 15.4607 16.1447 15.4636C14.674 15.4661 13.3169 14.9253 12.3475 13.9647C11.8738 13.4966 11.5259 12.9579 11.3112 12.3842C11.1002 11.8195 11.019 11.2166 11.0734 10.6181C11.1246 10.0278 11.3049 9.46483 11.5928 8.9554C11.8755 8.45473 12.2649 8.0022 12.7459 7.61946C13.6881 6.87133 14.8878 6.46621 16.1424 6.46457C17.3985 6.46292 18.5973 6.8643 19.5405 7.61005C20.0205 7.99105 20.4096 8.44194 20.6923 8.94188C20.9839 9.45399 21.1616 10.0202 21.2139 10.6036C21.2674 11.2018 21.1859 11.8042 20.9751 12.3685C20.76 12.9439 20.4133 13.4826 19.9397 13.9528Z" fill="#EA7600"/>
</g>
<defs>
<clipPath id="clip0">
<rect width="24" height="19" fill="white" transform="translate(0.5)"/>
</clipPath>
</defs>
</svg>
