<svg width="25" height="24" viewBox="0 0 25 24" fill="none" xmlns="http://www.w3.org/2000/svg">
<path d="M16.5 16C18.7091 16 20.5 14.2091 20.5 12C20.5 9.79086 18.7091 8 16.5 8C14.2909 8 12.5 9.79086 12.5 12C12.5 14.2091 14.2909 16 16.5 16Z" fill="#19BCFE"/>
<path fill-rule="evenodd" clip-rule="evenodd" d="M8.5 24C9.56087 24 10.5783 23.5786 11.3284 22.8284C12.0786 22.0783 12.5 21.0609 12.5 20V16H8.5C7.43913 16 6.42172 16.4214 5.67157 17.1716C4.92143 17.9217 4.5 18.9391 4.5 20C4.5 21.0609 4.92143 22.0783 5.67157 22.8284C6.42172 23.5786 7.43913 24 8.5 24Z" fill="#09CF83"/>
<path fill-rule="evenodd" clip-rule="evenodd" d="M8.5 16H12.5V8H8.5C7.43913 8 6.42172 8.42143 5.67157 9.17157C4.92143 9.92172 4.5 10.9391 4.5 12C4.5 13.0609 4.92143 14.0783 5.67157 14.8284C6.42172 15.5786 7.43913 16 8.5 16Z" fill="#A259FF"/>
<path fill-rule="evenodd" clip-rule="evenodd" d="M8.5 8H12.5V0H8.5C7.43913 0 6.42172 0.421427 5.67157 1.17157C4.92143 1.92172 4.5 2.93913 4.5 4C4.5 5.06087 4.92143 6.07828 5.67157 6.82843C6.42172 7.57857 7.43913 8 8.5 8Z" fill="#F24E1E"/>
<path fill-rule="evenodd" clip-rule="evenodd" d="M16.5 8H12.5V0H16.5C17.5609 0 18.5783 0.421427 19.3284 1.17157C20.0786 1.92172 20.5 2.93913 20.5 4C20.5 5.06087 20.0786 6.07828 19.3284 6.82843C18.5783 7.57857 17.5609 8 16.5 8Z" fill="#FF7262"/>
</svg>
