<svg width="19" height="26" viewBox="0 0 19 26" fill="none" xmlns="http://www.w3.org/2000/svg">
<g clip-path="url(#clip0)">
<path d="M18.4685 5.09674L16.8344 23.8484L9.48887 25.9343L2.16357 23.8513L0.531128 5.09674H18.4685Z" fill="#E44D26"/>
<path d="M9.5 24.3399L15.4356 22.6543L16.832 6.63013H9.5V24.3399Z" fill="#F16529"/>
<path d="M6.32326 11.2306H9.49998V8.93039H3.86914L3.92286 9.54748L4.47481 15.8862H9.49998V13.586H6.5285L6.32326 11.2306Z" fill="#EBEBEB"/>
<path d="M6.82942 17.0363H4.5752L4.88977 20.6479L9.4897 21.9559L9.50003 21.953V19.5598L9.49019 19.5625L6.98931 18.8708L6.82942 17.0363Z" fill="#EBEBEB"/>
<path d="M2.20032 0H3.34149V1.15487H4.38542V0H5.52666V3.49725H4.38549V2.32617H3.34156V3.49725H2.20039V0H2.20032Z" fill="black"/>
<path d="M7.02719 1.15977H6.02271V0H9.17369V1.15977H8.16857V3.49725H7.0274V1.15977H7.02733H7.02719Z" fill="black"/>
<path d="M9.67371 0H10.8636L11.5956 1.22884L12.3268 0H13.5172V3.49725H12.3807V1.76382L11.5956 3.00728H11.5759L10.7903 1.76382V3.49725H9.67371V0Z" fill="black"/>
<path d="M14.085 0H15.2266V2.34129H16.8314V3.49725H14.085V0H14.085Z" fill="black"/>
<path d="M9.49238 15.8862H12.2576L11.9968 18.8693L9.49231 19.5617V21.9547L14.0959 20.6479L14.1296 20.2593L14.6574 14.2037L14.7122 13.586H9.49238V15.8862Z" fill="white"/>
<path d="M9.49243 11.2249V11.2306H14.9165L14.9615 10.7136L15.0639 9.54747L15.1176 8.93039H9.49243V11.225V11.2249Z" fill="white"/>
</g>
<defs>
<clipPath id="clip0">
<rect width="18" height="26" fill="white" transform="translate(0.5)"/>
</clipPath>
</defs>
</svg>
