<svg width="19" height="17" viewBox="0 0 19 17" fill="none" xmlns="http://www.w3.org/2000/svg">
<path d="M9.49997 10.091C10.3876 10.091 11.1071 9.37145 11.1071 8.48385C11.1071 7.59625 10.3876 6.87671 9.49997 6.87671C8.61236 6.87671 7.89282 7.59625 7.89282 8.48385C7.89282 9.37145 8.61236 10.091 9.49997 10.091Z" fill="#00D8FF"/>
<path d="M9.5 12.1687C7.5683 12.2154 5.64144 11.955 3.79143 11.3973C2.93683 11.1263 2.13976 10.6996 1.4405 10.1385C1.17367 9.94688 0.95146 9.69976 0.78912 9.41414C0.62678 9.12851 0.52815 8.81115 0.5 8.48383C0.5 7.42119 1.66743 6.37976 3.623 5.69833C5.52247 5.09452 7.50709 4.80189 9.5 4.83176C11.4663 4.80428 13.4243 5.09163 15.2999 5.6829C16.1229 5.94529 16.8929 6.35142 17.5743 6.88247C17.8366 7.0652 18.0554 7.30336 18.2154 7.5801C18.3754 7.85683 18.4725 8.16536 18.5 8.48383C18.5 9.58826 17.195 10.7075 15.0929 11.403C13.2787 11.9426 11.3925 12.2009 9.5 12.1687ZM9.5 5.60061C7.59336 5.57513 5.69482 5.85332 3.87564 6.42476C2.07564 7.05283 1.26886 7.91169 1.26886 8.4819C1.26886 9.07847 2.13607 10.0164 4.04021 10.6676C5.81005 11.1985 7.65282 11.4457 9.5 11.3998C11.3105 11.4322 13.1154 11.1872 14.8518 10.6734C16.8286 10.0183 17.7286 9.07911 17.7286 8.48383C17.6961 8.27955 17.6217 8.08421 17.5099 7.91016C17.3982 7.7361 17.2515 7.58712 17.0793 7.47261C16.4697 7.00149 15.7818 6.64155 15.0472 6.40933C13.253 5.84603 11.3803 5.57302 9.5 5.60061Z" fill="#00D8FF"/>
<path d="M5.84858 16.4996C5.54869 16.5065 5.25233 16.4338 4.98973 16.2888C4.06915 15.7578 3.7503 14.2265 4.13665 12.1918C4.56264 10.2447 5.30074 8.37925 6.32237 6.66778C7.28069 4.95077 8.50756 3.39815 9.95644 2.06878C10.5949 1.4868 11.3314 1.02255 12.1319 0.697563C12.4214 0.561881 12.7372 0.491547 13.0569 0.491547C13.3767 0.491547 13.6925 0.561881 13.982 0.697563C14.9392 1.24913 15.2562 2.93856 14.8094 5.10692C14.3702 6.94842 13.6513 8.7117 12.6777 10.3353C11.7531 12.032 10.5648 13.5711 9.15737 14.8951C8.49573 15.4999 7.72787 15.977 6.89258 16.3023C6.55818 16.4264 6.20521 16.4931 5.84858 16.4996ZM6.98837 7.04963C6.01386 8.68849 5.30644 10.472 4.89265 12.3333C4.53715 14.2072 4.87851 15.3341 5.3748 15.6208C5.88908 15.9185 7.13751 15.6363 8.65337 14.312C9.99696 13.0436 11.1311 11.5703 12.0136 9.94699C12.9463 8.39482 13.636 6.70901 14.0585 4.94813C14.4789 2.90706 14.1157 1.65735 13.6002 1.36035C13.4069 1.28631 13.2004 1.25316 12.9937 1.26301C12.787 1.27286 12.5846 1.32549 12.3993 1.41756C11.6868 1.71157 11.0318 2.12897 10.4643 2.65056C9.08001 3.92393 7.9081 5.41031 6.99287 7.05349L6.98837 7.04963Z" fill="#00D8FF"/>
<path d="M13.1495 16.508C12.2784 16.508 11.1721 15.9808 10.0201 14.9902C8.5458 13.6487 7.29819 12.0777 6.32557 10.3378C5.31675 8.64993 4.5845 6.81148 4.15657 4.8922C3.97098 4.0478 3.93659 3.17718 4.05499 2.32077C4.08237 2.00308 4.17911 1.69525 4.33839 1.41901C4.49767 1.14277 4.71561 0.904835 4.97685 0.721986C5.93278 0.168486 7.55471 0.737415 9.21007 2.20699C10.5862 3.50696 11.7547 5.01029 12.6751 6.66456C13.6833 8.31307 14.4232 10.1113 14.8672 11.9919C15.0608 12.8673 15.0906 13.7709 14.9553 14.6572C14.9231 14.984 14.8206 15.3 14.6548 15.5835C14.489 15.8671 14.2639 16.1114 13.9949 16.2997C13.7365 16.4429 13.4448 16.5148 13.1495 16.508ZM6.99092 9.95084C7.92398 11.6136 9.11575 13.1171 10.5215 14.4052C11.9673 15.6491 13.1141 15.9166 13.6072 15.6266C14.1215 15.3277 14.5008 14.1076 14.1099 12.1333C13.6817 10.3378 12.972 8.62136 12.0071 7.0477C11.1289 5.46442 10.0135 4.0249 8.69964 2.77913C7.14135 1.3957 5.87749 1.08649 5.36257 1.38477C5.20207 1.5152 5.07037 1.67748 4.97576 1.86138C4.88116 2.04528 4.82571 2.24679 4.81292 2.4532C4.71071 3.21697 4.74401 3.99278 4.91128 4.74499C5.3229 6.58043 6.02519 8.33831 6.99156 9.95213L6.99092 9.95084Z" fill="#00D8FF"/>
</svg>
