<svg width="19" height="19" viewBox="0 0 19 19" fill="none" xmlns="http://www.w3.org/2000/svg">
<path fill-rule="evenodd" clip-rule="evenodd" d="M9.5 0.5C11.28 0.5 13.0201 1.02784 14.5001 2.01677C15.9802 3.00571 17.1337 4.41131 17.8149 6.05585C18.4961 7.70038 18.6743 9.50998 18.3271 11.2558C17.9798 13.0016 17.1226 14.6053 15.864 15.864C14.6053 17.1226 13.0016 17.9798 11.2558 18.3271C9.50998 18.6743 7.70038 18.4961 6.05585 17.8149C4.41131 17.1337 3.00571 15.9802 2.01677 14.5001C1.02784 13.0201 0.5 11.28 0.5 9.5C0.5 7.11305 1.44821 4.82387 3.13604 3.13604C4.82387 1.44821 7.11305 0.5 9.5 0.5Z" fill="#CC6699"/>
<path d="M15.1457 4.35201C14.7381 2.75386 12.0876 2.23058 9.57918 3.11901C8.00823 3.64689 6.55682 4.47942 5.30803 5.56893C3.92653 6.86108 3.70603 7.98608 3.79668 8.45601C4.11811 10.1146 6.38932 11.1984 7.32339 12.0026V12.0071C7.04825 12.1428 5.03225 13.1643 4.55911 14.2057C4.06153 15.3063 4.63818 16.0957 5.02068 16.2018C5.59495 16.34 6.19811 16.2951 6.74551 16.0731C7.29292 15.8512 7.75711 15.4634 8.07296 14.9643C8.334 14.5599 8.49731 14.1003 8.54998 13.6218C8.60264 13.1434 8.54321 12.6592 8.37639 12.2077C8.82631 12.0934 9.29399 12.0666 9.75403 12.1286C11.3329 12.3131 11.6427 13.2986 11.5836 13.7114C11.5558 13.8583 11.4967 13.9975 11.4102 14.1195C11.3238 14.2415 11.2122 14.3435 11.0828 14.4185C10.9722 14.4873 10.9382 14.5104 10.9478 14.5619C10.9613 14.6358 11.0121 14.6332 11.1066 14.6171C11.3439 14.5424 11.5529 14.3976 11.7062 14.2017C11.8596 14.0058 11.9499 13.7681 11.9655 13.5198C12.0034 12.5555 11.077 11.4716 9.43646 11.4993C8.95997 11.4857 8.48451 11.5508 8.02925 11.6921C8.00646 11.6661 7.98332 11.6404 7.95982 11.615C6.94539 10.5331 5.07082 9.76743 5.14989 8.31265C5.17882 7.78358 5.36268 6.39115 8.74989 4.70172C11.527 3.31765 13.75 3.69886 14.1345 4.54293C14.6835 5.74893 12.9465 7.98929 10.0626 8.31265C9.74386 8.37736 9.41464 8.36946 9.09936 8.28956C8.78408 8.20966 8.49084 8.05979 8.24139 7.85108C8.08968 7.68393 8.06718 7.67686 8.0106 7.70772C7.91868 7.7585 7.97718 7.90636 8.0106 7.99379C8.12103 8.1928 8.27009 8.36776 8.44903 8.5084C8.62798 8.64904 8.8332 8.75253 9.05268 8.81279C10.1865 9.05916 11.3692 8.9422 12.4328 8.4785C14.182 7.80415 15.5462 5.92379 15.1457 4.35201ZM7.71168 12.4976C7.83936 12.9378 7.83287 13.406 7.69303 13.8425C7.67803 13.8879 7.66153 13.9329 7.64353 13.9775C7.62553 14.0221 7.60603 14.0649 7.58503 14.1061C7.47684 14.3274 7.3367 14.5317 7.16911 14.7123C6.64646 15.2825 5.91553 15.4985 5.60246 15.3166C5.26432 15.1205 5.43339 14.3163 6.03961 13.6754C6.50541 13.2147 7.04245 12.8323 7.63003 12.5426L7.71168 12.4976Z" fill="white"/>
</svg>
