<svg width="19" height="19" viewBox="0 0 19 19" fill="none" xmlns="http://www.w3.org/2000/svg">
<g clip-path="url(#clip0)">
<path d="M14.696 11.1343C14.5355 11.2018 14.3757 11.2355 14.2137 11.2355C13.9572 11.2355 13.7262 11.1913 13.5215 11.102C13.3243 11.0184 13.1477 10.8927 13.004 10.7338C12.8638 10.577 12.755 10.394 12.68 10.1825C12.605 9.97101 12.5682 9.74301 12.5682 9.49926C12.5682 9.24801 12.6058 9.01701 12.68 8.80176C12.755 8.58651 12.8615 8.39976 13.0018 8.24151C13.1446 8.0798 13.3213 7.95151 13.5192 7.86576C13.7377 7.77173 13.9737 7.72496 14.2115 7.72851C14.384 7.72851 14.5497 7.75551 14.7095 7.80651C14.87 7.85826 15.0155 7.93476 15.1453 8.03451C15.275 8.13426 15.3823 8.25876 15.4655 8.40651C15.5519 8.56282 15.6046 8.73555 15.62 8.91351H14.9188C14.8745 8.72676 14.7905 8.58576 14.666 8.49201C14.5342 8.39565 14.3739 8.34627 14.2108 8.35176C14.045 8.35176 13.9047 8.38401 13.7892 8.44776C13.6737 8.51151 13.5793 8.59701 13.508 8.70576C13.4367 8.81451 13.3835 8.93676 13.3512 9.07401C13.319 9.21126 13.3018 9.35301 13.3018 9.50076C13.3018 9.64101 13.3175 9.77826 13.3512 9.91176C13.3835 10.0453 13.4367 10.1645 13.508 10.271C13.5793 10.3775 13.6737 10.463 13.7892 10.5275C13.9047 10.592 14.0457 10.6235 14.2108 10.6235C14.4545 10.6235 14.6435 10.5613 14.7762 10.4383C14.9097 10.3153 14.9863 10.1375 15.0095 9.90276H14.2692V9.35001H15.6733V11.1598H15.2052L15.1302 10.781C15.019 10.9348 14.8692 11.0566 14.696 11.1343ZM16.868 7.81251V10.5365H18.5V11.1575H16.1337V7.81251H16.868ZM2.58875 9.49926C2.58875 8.96751 2.846 8.46726 3.29975 8.02776L4.1315 11.1935H4.7045L5.51075 8.33226L6.30575 11.1935H6.88025L7.871 7.55151H7.226L6.58025 10.3453L5.801 7.55076H5.21L4.43075 10.3445L3.80075 7.62051C4.9175 6.85176 6.70175 6.35301 8.71175 6.35301C10.5958 6.35301 12.2847 6.74976 13.4075 7.43676C12.1835 6.28551 9.98375 5.47776 7.47125 5.47626C3.62075 5.47626 0.5 7.27701 0.5 9.49926C0.5 11.7215 3.62075 13.5245 7.46975 13.5245C9.97325 13.5245 12.1655 12.7183 13.3948 11.5745C12.272 12.2578 10.589 12.6455 8.71175 12.6455C5.32925 12.6448 2.58875 11.2378 2.58875 9.49926ZM9.48425 9.08451C9.39919 8.96208 9.28467 8.86303 9.15125 8.79651C9.00578 8.72682 8.84602 8.69214 8.68475 8.69526C8.489 8.69526 8.31275 8.73051 8.15975 8.80026C8.01596 8.86615 7.89017 8.96571 7.793 9.09051C7.61 9.32376 7.514 9.65301 7.514 10.0423C7.514 10.2148 7.53875 10.3783 7.58675 10.5245C7.63179 10.6661 7.70444 10.7974 7.8005 10.9108C7.99625 11.1388 8.27525 11.2595 8.60825 11.2595C8.783 11.2595 8.92475 11.2415 9.044 11.204C9.1475 11.1718 9.2165 11.129 9.2735 11.0923C9.41301 10.9993 9.5274 10.8733 9.6065 10.7255C9.674 10.601 9.70775 10.4833 9.71525 10.4233L9.7205 10.382H9.24575L9.24425 10.4158C9.2315 10.5703 9.029 10.8463 8.6675 10.8463C8.1515 10.8463 8.0285 10.4728 8.0195 10.1435H9.749V10.106C9.75134 9.91262 9.72993 9.71968 9.68525 9.53151C9.64546 9.37171 9.57738 9.22032 9.48425 9.08451ZM8.63 9.12201C9.0125 9.12201 9.21725 9.32826 9.25475 9.75201H8.0165C8.03525 9.40851 8.3075 9.12201 8.63 9.12201ZM12.1385 9.43326C12.096 9.29316 12.0279 9.16219 11.9375 9.04701C11.8492 8.93694 11.7371 8.84824 11.6097 8.78751C11.4721 8.72371 11.322 8.69143 11.1702 8.69301C11.0317 8.69229 10.895 8.72524 10.772 8.78901C10.6721 8.84059 10.5838 8.91206 10.5125 8.99901V7.88151H10.0392V11.1913H10.4893V10.9655C10.5338 11.0248 10.5871 11.0769 10.6475 11.12C10.7758 11.2123 10.934 11.2588 11.117 11.2588C11.3142 11.2588 11.4928 11.2145 11.642 11.1268C11.7755 11.0488 11.8895 10.9363 11.978 10.7938C12.0603 10.6584 12.1199 10.5104 12.1542 10.3558C12.1887 10.2075 12.2061 10.0557 12.206 9.90351C12.2088 9.74416 12.186 9.58539 12.1385 9.43326ZM11.7133 9.97101C11.7133 10.2305 11.6615 10.448 11.5617 10.601C11.5144 10.6781 11.4475 10.7413 11.3678 10.7842C11.2881 10.827 11.1984 10.8479 11.108 10.8448C10.8252 10.8448 10.4937 10.6475 10.4937 10.0888C10.4937 9.82176 10.5275 9.61551 10.595 9.45876C10.6925 9.23301 10.8582 9.12426 11.0982 9.12426C11.3547 9.12426 11.5273 9.22401 11.6233 9.43176C11.7028 9.60201 11.7133 9.81051 11.7133 9.97101Z" fill="black"/>
</g>
<defs>
<clipPath id="clip0">
<rect width="18" height="18" fill="white" transform="translate(0.5 0.5)"/>
</clipPath>
</defs>
</svg>
