<svg width="25" height="24" viewBox="0 0 25 24" fill="none" xmlns="http://www.w3.org/2000/svg">
<g clip-path="url(#clip0)">
<path d="M20.2498 0.300754H4.74952C4.19118 0.300063 3.63818 0.409527 3.1222 0.622878C2.60623 0.836228 2.13741 1.14927 1.7426 1.54408C1.34779 1.93889 1.03474 2.40771 0.821395 2.92369C0.608044 3.43966 0.49858 3.99266 0.499271 4.551V19.449C0.49858 20.0073 0.608044 20.5603 0.821395 21.0763C1.03474 21.5923 1.34779 22.0611 1.7426 22.4559C2.13741 22.8507 2.60623 23.1638 3.1222 23.3771C3.63818 23.5905 4.19118 23.6999 4.74952 23.6993H20.2498C20.8081 23.6999 21.3611 23.5905 21.8771 23.3771C22.3931 23.1638 22.8619 22.8507 23.2567 22.4559C23.6515 22.0611 23.9645 21.5923 24.1779 21.0763C24.3912 20.5603 24.5007 20.0073 24.5 19.449V4.551C24.5007 3.99266 24.3912 3.43966 24.1779 2.92369C23.9645 2.40771 23.6515 1.93889 23.2567 1.54408C22.8619 1.14927 22.3931 0.836228 21.8771 0.622878C21.3611 0.409527 20.8081 0.300063 20.2498 0.300754ZM23.4883 19.059C23.491 19.5359 23.3995 20.0086 23.219 20.4499C23.0385 20.8913 22.7725 21.2927 22.4363 21.6309C22.1002 21.9691 21.7005 22.2376 21.2603 22.4209C20.82 22.6041 20.3479 22.6986 19.871 22.6988H5.12902C4.16691 22.6974 3.2446 22.3146 2.56429 21.6342C1.88397 20.9539 1.50116 20.0316 1.49977 19.0695V4.92975C1.50116 3.96764 1.88397 3.04534 2.56429 2.36502C3.2446 1.6847 4.16691 1.30189 5.12902 1.3005H19.859C20.8215 1.3007 21.7445 1.68313 22.4251 2.36371C23.1056 3.04428 23.4881 3.96728 23.4883 4.92975V19.059ZM9.98827 11.25L12.7895 16.629C12.8405 16.7108 12.8098 16.7888 12.7303 16.7888H10.988C10.8793 16.7888 10.8283 16.7618 10.781 16.6598C10.1413 15.3398 9.48802 14.0198 8.81977 12.6015H8.80102C8.18609 13.9672 7.55178 15.3241 6.89827 16.6718C6.85252 16.7498 6.80152 16.7805 6.71902 16.7805H5.06977C4.96852 16.7805 4.96102 16.6988 5.01202 16.6403L7.75027 11.421L5.10202 6.14025C5.03902 6.0585 5.10202 5.99925 5.15977 5.99925H6.87877C6.98002 5.99925 7.01977 6.0195 7.05877 6.108C7.69698 7.43846 8.32076 8.77579 8.93002 10.1198H8.94877C9.53077 8.79975 10.172 7.42875 10.7885 6.12C10.8395 6.03825 10.8703 5.98725 10.9685 5.98725H12.5773C12.659 5.98725 12.6905 6.05025 12.6403 6.12825L9.98827 11.25ZM13.2808 12.879C13.2808 10.551 14.828 8.73 17.2888 8.73C17.4995 8.73 17.609 8.73 17.8085 8.75025V6.102C17.8085 6.039 17.8588 6 17.9098 6H19.4878C19.5695 6 19.5898 6.03075 19.5898 6.078V15.2618C19.5898 15.531 19.5898 15.8708 19.6408 16.2375C19.6408 16.3005 19.6205 16.3193 19.559 16.3515C18.7594 16.7314 17.8853 16.929 17 16.9298C14.828 16.941 13.2808 15.6015 13.2808 12.879ZM17.8093 10.32C17.6246 10.2494 17.428 10.215 17.2303 10.2188C15.9695 10.2188 15.0905 11.1908 15.0905 12.801C15.0905 14.6408 15.9883 15.3788 17.1215 15.3788C17.3593 15.3788 17.6218 15.3518 17.8093 15.27V10.32Z" fill="black"/>
</g>
<defs>
<clipPath id="clip0">
<rect width="24" height="24" fill="white" transform="translate(0.5)"/>
</clipPath>
</defs>
</svg>
