<?xml version="1.0" encoding="UTF-8"?>
<svg width="367px" height="620px" viewBox="0 0 367 620" version="1.1" xmlns="http://www.w3.org/2000/svg" xmlns:xlink="http://www.w3.org/1999/xlink">
    <!-- Generator: Sketch 62 (91390) - https://sketch.com -->
    <title>peep-sitting-7</title>
    <desc>Created with Sketch.</desc>
    <g id="Introduction" stroke="none" stroke-width="1" fill="none" fill-rule="evenodd">
        <g id="variations-sitting" transform="translate(-1291.000000, -215.000000)">
            <g id="a-person/sitting" transform="translate(1243.000000, 200.000000)">
                <g id="pose/sitting/crossed_legs" transform="translate(-20.311475, 159.504800)">
                    <path d="M430.359498,186.492174 C428.401646,185.930559 425.95559,185.786189 423.813635,185.683597 C416.242886,185.238853 408.523265,188.842812 401.100064,190.467106 C397.850576,191.269073 394.409832,192.213558 390.932533,192.917163 C387.845427,193.335466 384.653951,193.649325 381.445257,193.848957 C378.851653,193.926431 375.833684,193.72812 374.948134,196.450524 C369.734967,197.459791 365.120201,197.879416 360.150738,197.021658 C360.616162,195.440728 360.881323,193.788142 360.400006,192.085318 C360.642916,191.681822 360.973507,191.136072 361.150193,190.768273 L360.552851,190.768273 C351.830332,187.282242 342.398154,184.901461 333.629807,181.289569 C322.185208,177.171326 305.329829,169.214323 292.106184,163.780885 C293.002595,158.879184 293.334776,153.898951 292.954649,149.057271 L293.486032,148.628392 C293.660599,147.677031 293.931853,146.538466 294.423501,145.676213 C295.047333,144.023627 295.061902,141.767913 295.309581,139.900095 C295.826129,136.24669 296.171025,130.745827 295.230906,126.40812 C294.820316,120.525707 290.84872,115.991012 286.566399,112.353472 C281.308464,107.161708 276.043906,102.096335 270.911002,96.7041453 C242.502682,67.7891817 240.256093,31.3706851 195.784435,20.3023262 L195.762713,20.1304573 C195.412255,19.7401826 195.268945,19.4305542 194.869746,20.0474314 C193.401424,19.4855522 191.570457,19.5326179 190.340807,18.5828437 C188.157793,16.5947169 186.608942,14.2996057 185.596241,11.5758798 C184.81612,6.42721564 185.368165,-1.50810488 180.850351,-4.80243557 C175.832413,-7.80353143 149.171086,-9.9402588 146.871783,-3.37883204 C145.445314,-2.04116296 144.796317,-0.341775907 144.350496,1.73889575 C142.864955,4.54432545 141.92775,7.65515301 140.431348,10.5036821 C137.249939,16.8927112 135.187718,15.4767756 129.570847,16.9368683 C128.961055,15.5801614 127.110221,15.8535652 125.761367,16.0505534 C109.426775,18.3424917 89.5115739,24.5971985 82.5177704,39.9263202 L83.1129934,39.8504335 C71.0408546,62.4958831 78.8698775,91.2947692 81.0290508,115.292695 C82.7755149,136.624273 80.7781936,158.057386 76.0317739,177.954783 C70.2059001,199.063196 69.8716004,222.674549 81.4306342,241.78135 C82.6054512,243.968316 84.0358936,247.059048 86.5669819,245.687005 C87.9539811,246.734083 89.5121037,247.457255 91.6641248,248.087089 C92.2574935,248.516761 92.871789,249.23861 93.4929718,249.546917 C93.5221105,249.588694 94.5220956,249.013065 94.5745452,248.997729 C96.4645834,251.690783 200.225958,260.689047 210.993745,262.085945 C220.480492,263.227948 233.01567,266.144167 240.746681,259.31198 C247.135461,257.489376 253.82066,252.744736 258.926279,248.033677 C262.024512,292.894904 263.737864,384.770479 266.502326,385.410625 C267.712109,385.819937 269.345198,386.310425 270.714449,386.702286 C270.722661,389.925225 270.962922,393.587355 270.709151,396.755825 C270.284786,400.334665 269.209306,404.559996 268.72269,408.32181 C266.631331,408.1822 266.01624,410.276621 265.7728,411.699431 C263.967529,423.452357 264.021038,432.927888 264.150573,445.846085 C285.379397,458.330644 310.259558,465.196411 334.14662,473.264996 C336.434534,474.98157 341.392341,473.124857 344.034156,472.660811 C353.20594,470.857773 363.627773,465.524548 361.312575,455.746 C359.617501,448.383399 352.500255,444.146962 346.509086,439.815337 C339.954481,435.074134 333.04465,430.336633 327.01666,424.6914 C322.180705,420.142691 318.569103,416.614089 314.53605,411.481026 C312.747203,409.093898 310.839681,405.17185 308.43336,403.412176 C310.975573,400.401297 305.838961,403.223385 303.894354,403.397369 C302.750265,398.021045 301.333862,392.85916 299.635344,387.70177 L301.286446,387.776334 C306.707292,382.721802 309.746188,358.456289 310.123666,351.257625 C312.840976,304.328947 312.776341,250.239945 301.875841,210.718025 C310.155718,215.808782 319.235318,220.060819 327.469633,225.095521 C332.661874,228.132577 337.93014,232.349448 343.750451,233.821968 C344.129519,234.909237 345.517313,235.33177 346.274652,234.26724 C347.316491,234.395481 348.658723,233.963958 348.773423,233.489864 C349.838838,231.314532 351.382656,228.97024 351.196964,226.606381 C351.196699,226.606381 349.767316,223.295393 349.767316,223.295393 C352.969917,224.595515 356.451985,227.330611 359.870742,227.581275 C366.77607,250.603514 380.381431,237.706734 393.473422,228.746811 C401.374497,223.234577 410.017283,217.147509 418.332391,211.270385 C425.387121,205.667193 439.160162,200.350362 432.408474,189.25186" id="ðŸŽ¨-Background" fill="#FFFFFF"></path>
                    <path d="M133.583067,15.530625 C140.251987,13.9123277 141.391493,-2.05226436 145.41842,0.221177721 C147.746148,2.2426614 143.938438,6.05640743 143.264636,8.33804543 L142.969016,8.91757064 C141.602792,11.5750359 140.057746,14.2236381 137.365096,15.7558806 C135.634391,17.5753745 130.461074,15.7889287 131.221716,18.6868469 C133.878005,27.4205236 147.975161,33.468054 156.283445,36.1875127 C169.197145,41.0313006 190.087921,39.3923813 193.122015,23.1554732 C186.038754,21.8605181 180.801896,9.09788641 185.167445,3.78428727 C185.316237,8.94586534 186.728442,14.2726837 190.785815,17.7696971 L191.009703,17.9749408 C191.723627,18.6254977 192.648181,19.402239 193.569717,19.2576529 C194.468296,18.0079075 196.212768,18.7188374 196.726393,20.0378515 C237.056026,26.9996235 246.040495,70.435613 271.438463,96.0023847 C276.511702,101.336077 281.815279,106.442928 287.050549,111.614552 C292.39728,115.850785 296.180897,121.756605 296.444593,128.690881 C296.922477,132.547722 296.685785,136.407999 296.174543,140.270921 L296.139059,140.619918 C295.902149,143.013887 295.761463,145.58535 294.62043,147.7107 C294.423452,148.430883 294.503143,149.341159 293.879115,149.84957 C294.151813,154.25686 293.892353,158.743464 293.145743,163.137534 L295.091604,164.004719 C316.503435,173.527572 338.162447,182.503487 360.488881,189.642077 C362.396972,189.295998 362.241296,191.51154 361.317565,192.518581 C361.56114,193.703023 361.587615,194.935055 361.30168,196.106278 C365.39003,196.692947 369.542715,196.205158 373.578379,195.46118 C374.855029,192.653681 378.247073,192.803587 380.869738,192.7248 C384.12808,192.520696 387.380598,192.20317 390.615378,191.751866 C398.585569,189.97388 406.412263,187.634342 414.305675,185.578488 C419.587806,184.094498 425.284015,184.164824 430.582826,185.530899 C431.482993,186.538204 432.314325,187.614249 433.015926,188.756389 C437.859623,196.255919 433.08688,203.128329 426.325562,207.067658 C415.478011,214.745648 404.627548,222.413855 393.731546,230.021254 L392.939959,230.585112 C379.97634,239.850169 365.392232,251.57818 358.468799,229.027432 C356.141865,228.754852 354.10272,227.195248 351.93464,226.27519 C352.517896,228.98143 350.776336,231.714901 349.575671,234.034874 C349.058604,235.356268 347.645341,235.792238 346.340362,235.779812 C345.223095,236.874364 343.126234,236.443417 342.395509,235.145289 C336.469228,233.451378 331.57311,229.496186 326.327515,226.42351 C318.869096,221.900156 311.045049,218.043844 303.47914,213.71164 C316.047864,265.674029 312.973791,319.800404 309.629139,372.693955 L309.605432,373.171862 C309.190942,380.893919 307.417522,384.547205 301.003149,389.280644 C302.120416,392.68433 303.120131,396.101499 303.882362,399.602742 C304.151618,400.414932 305.390407,399.650596 305.400468,400.76577 C307.679216,400.233299 312.310579,400.803048 310.694778,403.95081 C315.270013,407.784649 318.367649,412.978482 322.378161,417.34955 C329.441566,425.803508 338.674639,432.095594 347.727679,438.29541 C368.539028,448.884273 369.731751,467.234406 345.382478,473.503226 L345.138375,473.560272 C341.785301,474.366047 337.747082,476.208125 334.496537,474.657264 C329.634043,473.722401 324.80835,471.829937 320.050963,470.388248 C300.895129,464.058884 282.159461,456.64713 264.005725,448.129191 C263.347543,447.820125 262.975033,447.112897 262.957824,446.405404 C263.160361,440.560921 261.571036,408.533914 267.64002,407.8444 C268.995302,401.301413 269.208165,394.546918 268.961943,387.869095 C266.993223,387.2507 265.002528,386.654249 262.963383,386.267718 C260.983544,385.645093 257.887496,385.505498 256.561867,383.903857 C256.085308,383.732007 255.735831,383.306348 255.807315,382.634811 C256.879573,372.598777 257.692372,362.536304 258.285424,352.460611 C260.316361,318.670425 259.626938,284.774749 257.313772,251.021577 C252.547119,255.137514 247.115401,258.741339 241.068392,260.658391 C237.730622,263.997831 232.37886,264.714049 227.822688,265.118557 C221.963655,265.480764 216.207876,264.312184 210.425622,263.585127 C200.607062,262.350922 190.856782,263.443493 181.109652,264.653887 L177.778656,265.068853 C153.915209,267.682293 128.125668,268.222695 105.884376,258.038341 C101.696743,258.409801 96.4980094,253.890677 93.8856697,250.870878 C92.7321312,251.582072 91.5987141,250.192731 90.679484,249.461708 C89.1624365,249.001679 87.4415276,248.340718 86.0648005,247.375715 C82.5721496,248.516798 80.6881515,243.989214 79.3614631,241.527266 C58.3046862,205.522066 81.7548503,169.682107 79.991051,131.501288 C81.0590735,101.567678 67.3852607,70.3819429 80.6007822,41.6726974 C83.2742805,29.523702 98.910459,21.1273799 110.679888,18.0396337 C114.472506,17.4143644 128.830446,12.2308424 130.411565,16.5897492 C131.159763,15.6086184 132.437207,15.5351196 133.583067,15.530625 Z M308.248475,405.353078 C306.275248,405.564638 304.350973,405.68602 302.400767,406.043026 C295.281588,407.209511 288.490795,409.961633 282.372916,413.785567 C280.391749,415.018958 278.623333,416.57339 276.349768,417.260693 C271.677476,418.954754 267.085627,414.748691 267.428037,410.201224 C266.125606,421.629128 266.348941,433.388122 267.02503,444.87394 C285.300077,453.128984 303.984483,460.489396 323.008388,466.883775 C327.292492,468.676211 332.365145,469.25033 336.299428,471.674271 C343.008456,471.251681 349.761673,468.899671 355.396632,465.221977 C364.743598,458.746147 358.538396,448.474944 350.789964,443.955773 C333.732936,436.269824 319.214086,420.715985 308.248475,405.353078 Z M270.877214,388.452697 C270.520364,391.840455 273.098177,397.117427 272.734429,403.869354 C272.454785,405.977758 271.79627,408.186347 272.024973,410.302967 C273.074564,418.15402 281.588831,408.176805 285.107191,407.08351 C290.101771,404.340333 295.529612,402.472852 301.107888,401.451648 C301.073928,399.640886 299.873372,398.918118 299.715774,397.129089 C299.489459,394.492988 299.500867,391.960519 299.38174,389.298974 C292.1264,392.593438 278.57298,390.26399 270.877214,388.452697 Z M309.968782,404.840946 C309.842303,404.925342 309.708781,404.996797 309.571739,405.06097 C310.580056,406.280274 311.453497,407.633319 312.649503,408.681941 L312.140321,407.892542 C311.459196,406.839116 310.762436,405.790072 309.968782,404.840946 Z M84.6324299,123.936128 C84.2668991,125.419612 83.601092,126.814574 82.6037076,128.001044 C87.7542961,169.699271 61.2549067,204.461006 85.6186733,243.230844 C85.9266423,243.374066 86.2075545,243.552168 86.4781216,243.775193 C86.6213629,243.680064 86.7646043,243.57965 86.9051931,243.479236 C98.3247139,223.302368 114.580488,205.897718 127.532692,186.589431 C130.018725,181.742871 134.111185,176.864601 135.678086,171.264936 C109.649271,161.002627 99.2520692,146.028789 84.6324299,123.936128 Z M427.17816,187.184523 C426.074512,187.578831 424.846471,187.253329 423.668717,187.232158 C419.487292,187.142975 415.400881,188.232482 411.401545,189.333368 C399.769566,192.51006 388.076185,195.322348 376.158898,197.203645 C375.918054,197.452403 375.687796,197.706454 375.478712,197.973736 C375.68515,198.323056 375.716909,198.759706 375.41731,199.193444 C373.619448,202.622599 375.072717,206.82105 373.766601,210.491553 C371.874254,217.922534 366.840611,226.304088 359.32892,228.941451 C361.834493,231.325028 363.629444,234.392955 366.210181,236.693171 C372.552587,241.033997 379.537597,234.564439 384.715482,231.095589 C394.573684,224.141747 404.457822,217.236597 414.368956,210.359235 C418.809223,206.684763 428.631695,202.053366 430.756417,197.185121 C432.117583,193.452694 429.640064,189.816594 427.17816,187.184523 Z M359.239071,196.658979 C354.99576,205.300219 352.546092,214.487333 350.095628,223.765073 C352.644323,224.464986 354.992043,225.561753 357.497463,226.298921 C361.026078,227.091574 366.00798,220.282684 367.777199,217.579737 C369.601108,214.557086 370.878111,211.23587 371.470417,207.756123 C371.970333,204.348243 371.437762,200.809047 372.922376,197.652438 C368.325434,198.121424 363.662119,198.219713 359.239071,196.658979 Z M106.968897,178.829734 C110.953722,177.715097 101.888824,186.716202 101.366707,187.676868 C95.4725761,194.625702 90.0723108,201.964825 84.7133491,209.326686 L83.0887744,211.56119 C82.9327164,211.787592 81.856866,213.375201 82.6348151,213.173328 C82.7060249,213.154778 82.7392384,213.248062 82.6826426,213.287018 C77.7266545,214.16235 104.579119,179.441645 106.968897,178.829734 Z M204.113981,174.58082 C204.436344,173.611477 202.906444,173.196799 202.584082,174.16086 L201.568291,177.215297 C197.734997,188.756459 193.925222,200.313413 189.343451,211.584888 C188.960316,212.530459 190.492857,212.942496 190.87335,212.007489 C195.856753,199.741473 199.928557,187.137375 204.113981,174.58082 Z M248.67293,170.540209 C247.275636,177.16132 243.744838,183.130928 241.604456,189.459931 C245.624386,188.575163 248.721076,184.834758 251.06436,181.617614 L251.134686,181.510509 C252.240128,179.811495 253.525077,177.157274 256.035571,178.356138 C259.846516,180.566606 257.116476,188.406284 257.045315,192.122149 C256.562003,197.215698 254.90361,201.980459 253.773236,206.928349 C256.6784,204.945869 257.513284,201.037112 258.929095,197.990958 L264.378593,184.936877 L264.378593,184.936877 C268.384767,179.455963 266.524266,195.869152 266.317397,197.418352 C265.991485,200.820736 264.555834,204.243701 265.119301,207.669834 C267.378462,205.242198 268.80168,202.191822 269.997395,199.096587 C271.656317,194.791757 273.170272,190.431513 274.74851,186.098184 C275.294253,184.709946 277.363211,185.197056 277.063224,186.726202 C276.961429,191.644169 276.880628,196.561967 276.801995,201.479866 L276.743132,205.168314 C276.73255,205.867578 276.386005,207.909958 277.59574,207.345533 C283.948372,200.68748 285.577137,187.374539 284.750718,178.430023 C272.262904,178.731103 259.522191,177.113823 248.67293,170.540209 Z M359.798279,195.378647 C359.746983,195.541151 359.687992,195.703655 359.629002,195.866158 C359.664909,195.873545 359.703381,195.880931 359.739288,195.89078 C359.762371,195.718428 359.78289,195.548538 359.798279,195.378647 Z M82.6461418,195.378647 C81.2609731,194.356952 104.543144,164.507348 103.034796,173.124169 C96.5394175,180.798173 88.9648312,187.522985 82.6461418,195.378647 Z M288.259852,129.418833 C266.486254,124.311585 247.312062,143.391606 225.446196,140.509007 C225.699402,147.342745 226.050974,154.22278 225.912837,161.059693 C254.9504,163.451277 251.646525,175.792006 285.073433,174.549652 C289.393049,171.660704 291.167082,153.95505 290.802253,148.609967 C291.081443,142.290261 285.635259,139.45343 280.210287,138.344942 C278.249862,139.526712 274.732817,136.000714 277.643759,134.760212 C281.474991,133.609395 285.059646,131.799834 288.259852,129.418833 Z M127.629361,17.4125138 C119.883203,18.1749023 112.210892,20.2832263 105.0915,23.5409448 C78.774257,31.1275826 74.9795239,61.8901983 78.1440513,85.2019584 C79.4552815,102.929738 84.5181017,120.267869 95.1625172,134.683775 C123.500865,177.839564 170.437295,171.006069 214.896045,165.297929 C216.49869,164.184461 219.214318,164.975115 220.758732,163.504229 C220.597277,163.448753 220.451702,163.372145 220.327302,163.277044 C221.069468,162.698781 221.643561,161.684376 221.81481,160.606307 L222.135074,160.638007 L222.135074,160.638007 C222.44925,153.945049 222.198068,147.383383 222.299441,140.742994 C207.690896,136.742436 192.023892,134.697776 177.21869,130.713068 C175.535847,131.885181 173.59547,130.536339 171.951536,129.899431 C167.690088,128.089352 163.390753,126.369985 159.059773,124.733018 L157.976373,124.325488 C155.153108,123.268816 152.331934,122.185011 149.535159,121.055517 L148.487555,120.629779 C146.885441,119.975435 142.839525,117.553544 141.091836,119.065641 L141.232875,119.369174 C142.269165,121.627294 145.839236,129.982062 141.450479,128.329745 C137.886812,125.830717 136.039073,108.404881 132.509286,108.250872 C131.295459,111.495117 130.425717,114.862466 130.226941,118.330462 C130.155477,119.110814 129.12825,119.768856 128.511013,119.039753 C124.324552,113.534229 130.648313,107.537354 130.81718,101.726189 C131.216054,94.969038 128.222246,88.6467078 126.730768,82.1790852 L126.639034,81.7330367 C125.764533,77.5371398 124.403619,72.4498453 124.764717,68.6867099 L125.633227,71.9533482 C126.504664,75.221943 127.397169,78.4911693 128.421287,81.7138855 C130.962755,89.7630813 135.551531,98.0558399 133.001593,106.668506 C138.117085,106.83863 138.982063,114.901827 140.903648,118.584327 C144.012592,114.555503 165.890074,124.215594 170.882224,125.765203 L171.845055,124.674296 C187.480157,106.970125 198.767035,94.98856 223.000052,108.992919 C218.813855,95.5068839 218.409422,81.182908 217.695313,67.1788395 C217.940143,64.5147063 216.398111,57.4870478 218.572731,56.0328035 C218.949901,56.0877504 219.317014,56.2016068 219.663482,56.3532392 L219.663062,57.7336266 C219.673476,60.4075782 219.798391,64.8415901 220.921246,65.8487542 L221.436419,71.1434657 C222.785862,84.911008 224.31607,98.6681451 228.432896,111.935485 C238.315295,117.452896 247.332715,124.361415 255.815745,131.814648 L256.782046,131.462487 C267.263788,127.630135 279.875583,122.717757 290.592196,127.500786 C290.413006,124.800462 289.369369,122.216107 287.913623,119.932376 C285.485703,119.330866 283.896822,116.773985 282.159455,115.071687 C276.650912,109.162251 270.996,103.388069 265.614239,97.3594933 C242.650242,72.6883252 232.880333,32.1768575 196.818326,22.6076396 C194.434343,42.5433341 168.895528,45.7244439 153.505645,38.9017796 L152.921543,38.6783388 C143.354607,34.9908555 132.54315,29.4254696 129.183303,19.2862567 L129.043676,18.9927545 C128.6982,18.2776996 128.286219,17.5487844 127.629361,17.4125138 Z M133.30544,130.860745 C133.333471,130.829917 133.3877,130.871284 133.36386,130.905538 C128.879912,136.524701 125.231399,144.1888 129.687578,150.901178 C130.511224,152.412287 128.586239,153.86411 127.353913,152.712137 C121.168967,145.697537 128.031116,136.19007 133.30544,130.860745 Z M289.303061,132.130252 C286.837373,133.88825 284.193695,135.34846 281.392967,136.500432 C281.401866,136.822514 281.244554,137.167061 281.102424,137.41992 C284.789177,137.712484 288.62853,138.66358 291.216455,141.348641 C291.342095,140.366461 291.465118,139.381668 291.559348,138.396876 C291.797541,135.86306 291.363035,133.595686 289.303061,132.130252 Z M119.757384,107.290349 L119.785983,107.154957 C119.805976,107.001359 120.039579,106.990748 120.032787,107.154957 C119.94698,109.16367 118.483538,110.592476 117.243967,112.022874 C115.404603,114.144862 113.564975,116.266318 111.724822,118.38751 C108.648254,122.084208 104.115873,125.800538 105.134995,131.156042 C105.154199,133.058111 102.767129,133.465849 101.79878,132.067019 C97.9472162,124.731453 110.071183,118.490174 114.157928,113.75755 C116.076942,111.709255 119.101035,110.202069 119.757384,107.290349 L119.757384,107.290349 Z M177.484377,129.313522 C177.541829,129.404793 177.582866,129.50367 177.604752,129.605082 C178.250398,129.673536 178.893309,129.74706 179.53622,129.825654 L177.484377,129.313522 L177.484377,129.313522 Z M81.0477792,112.157074 C81.1628402,112.923543 81.2705767,113.69178 81.3736855,114.460901 L81.4753025,115.229871 L81.4911369,115.162784 C81.5437479,114.963163 81.6430548,114.789751 81.7728486,114.651159 L81.8172201,114.606263 C81.5499282,113.793884 81.2935268,112.977575 81.0477792,112.157074 Z M258.05336,104.222968 C259.598359,104.058409 252.598047,109.085003 252.211341,109.707045 C251.646918,110.197076 250.987381,109.326373 251.589589,108.901957 C253.764418,107.369373 255.907977,105.796431 258.05336,104.222968 Z M244.434257,89.4361032 C245.509253,88.9964445 246.239264,90.7842497 245.219688,91.2822492 C241.505729,93.0968596 237.578574,94.3803581 234.156567,96.7676023 C234.006481,96.8721953 233.818211,96.6283201 233.960607,96.5161059 L234.371797,96.1913726 C237.523717,93.6914314 240.672258,90.974383 244.434257,89.4361032 Z M82.3301807,66.833325 C83.3681376,71.7149178 88.9841642,73.3182016 93.3426305,74.618578 L94.7044347,75.136545 C98.5532453,76.6076326 102.540482,78.2625055 105.309429,81.3710228 C106.394746,84.8773095 98.6506832,78.7694729 97.5695994,78.4601885 C92.2813904,75.1853338 82.7262606,74.6289406 82.3301807,66.833325 Z M196.976881,21.2535095 C197.006054,21.5017371 197.020641,21.7551906 197.027934,22.008644 C197.3537,22.008644 197.677036,22.0112569 198.002802,22.0217086 C197.623552,21.7996102 197.275905,21.5461568 196.976881,21.2535095 Z" id="ðŸ–-Ink" fill="#000000"></path>
                </g>
                <g id="Head" stroke-width="1" transform="translate(86.511840, 45.072000)">
                    <g id="head/Long-Afro">
                        <path d="M102.438444,68.8460778 C100.717234,47.8938578 95.4763721,29.3367138 70.8505888,28.5454498 C59.7374534,28.6446082 48.393369,31.0021242 38.1739386,35.3640922 C13.3347594,47.8004586 5.45365622,93.243301 27.337641,111.536023 C27.2074971,111.609891 27.1761523,111.823482 27.3298675,111.926647 C31.8510515,114.963999 36.8765117,117.462991 41.9097455,119.562845 C55.3168238,125.222887 71.0998432,127.681314 84.7729768,121.541756 C105.639382,112.675593 105.952329,88.004933 102.438444,68.8460778 L102.438444,68.8460778 Z" id="ðŸŽ¨-Background" fill="#FFFFFF"></path>
                        <path d="M143.510805,59.0802524 C144.3684,58.3090204 145.007836,57.2974044 145.331315,56.1630924 C145.62721,55.1289404 145.647271,53.9996364 145.333822,52.9679884 C144.997805,51.8612204 144.273112,50.9798124 144.436105,49.8279724 C144.453658,49.7152924 144.476227,49.5976044 144.511333,49.4799164 C145.13823,47.3114524 146.680398,45.7464524 146.128728,43.3426124 C145.973258,42.6640284 145.67987,42.0530524 145.271133,41.5722844 C145.316269,41.0514524 145.356391,40.5256124 145.388989,39.9997724 C146.294229,37.8838924 146.26163,35.3698764 145.296209,33.2865484 C145.178352,32.2198444 145.000313,31.1631564 144.749554,30.1239964 C144.864903,29.2050284 144.704417,28.1934124 144.408522,27.3896284 C143.888698,25.9753692 143.246254,24.5816428 142.549144,23.2109532 C142.631142,22.8361044 142.594281,22.4399716 142.387154,22.0876588 C142.010514,21.447386 141.512757,20.8844868 141.003967,20.334358 C140.644128,19.6925828 140.281782,19.056066 139.922444,18.4278124 C139.75594,18.1391012 139.572134,17.8188396 139.369521,17.4795476 C139.921692,16.4564132 140.216584,15.4593204 139.632567,14.2561484 C139.413153,13.8041764 138.809827,13.470894 138.313073,13.5004412 C137.77018,13.5327428 137.222272,13.5570316 136.671354,13.5778148 C135.641738,12.3363316 134.474957,11.2218012 133.224672,10.5802764 C131.95834,9.5085644 130.674454,8.4568844 129.425674,7.3826684 C129.072104,7.0771804 128.716026,6.7716924 128.362456,6.4662044 C128.359949,6.4586924 128.357441,6.4486764 128.354933,6.4411644 C128.094144,5.4921484 127.800756,4.5556524 127.507368,3.6141484 C127.324314,3.0307164 127.269147,2.4197404 126.699924,2.1017324 C125.511327,1.4381724 123.683294,1.3330044 122.319165,1.2203244 C122.183756,1.1001324 122.048346,0.9824444 121.912936,0.8622524 C122.532311,-0.7853796 122.421977,-2.5356756 121.642116,-4.1858116 C121.376312,-4.7467076 120.453519,-4.9996116 119.946986,-4.6290196 C118.778449,-3.7726516 117.391752,-3.4696676 116.0201,-3.5948676 C114.003998,-5.1423396 105.871885,-12.140018 104.615332,-12.878698 C104.599785,-12.9052404 104.587247,-12.9317828 104.570697,-12.9580748 C103.864309,-14.084374 103.006463,-14.9888188 102.042044,-15.7139772 C101.904377,-15.8574564 101.766711,-16.001186 101.629044,-16.1449156 C101.750161,-17.0035372 102.068875,-17.8326116 102.581928,-18.5262196 C102.637095,-18.6063476 102.699785,-18.6839716 102.762474,-18.7590916 C103.660191,-19.8257956 102.564375,-21.1979876 101.31058,-20.6395956 C101.220307,-20.5995316 101.130034,-20.5594676 101.03976,-20.5168996 C100.075843,-20.087714 99.0093651,-19.6212188 97.8987537,-19.22759 C97.4922735,-19.3795828 97.0780197,-19.5173028 96.7001259,-19.6690452 L92.6538794,-21.29339 C91.9878636,-21.5608172 91.2837325,-21.7874292 90.6395327,-22.1016812 C90.4148527,-23.5938148 88.9173202,-24.572378 87.3621132,-24.5212964 C87.4518849,-24.807754 87.5857902,-25.0859484 87.7746117,-25.3496196 C87.8297786,-25.4272436 87.8899608,-25.5023636 87.9526505,-25.5749796 C88.7525716,-26.5039636 87.6843384,-28.2267156 86.5408776,-27.4003956 C86.4606347,-27.3428036 86.3778843,-27.2852116 86.2976414,-27.2276196 C85.9799298,-27.005014 85.6546954,-26.7961804 85.3259505,-26.5938572 C84.7996074,-26.8232236 84.2068132,-26.8755572 83.5864356,-26.6329196 C82.212778,-26.0958116 80.9464453,-25.5496892 79.7370349,-24.7078444 C79.6878861,-24.6735396 79.636982,-24.6447436 79.5873318,-24.612442 C78.9870148,-25.3365988 78.03388,-25.8208724 77.1755321,-25.815614 C77.157979,-25.815614 77.144438,-25.8158644 77.128891,-25.8161148 C76.4871988,-26.7924244 75.3108885,-27.3598308 74.1749505,-27.2218604 C74.2516827,-28.6228484 72.8471818,-29.8730956 71.5685619,-30.0250884 C70.07454,-30.2023716 68.7279644,-29.336238 68.2796074,-27.8809132 C68.1547294,-27.475766 68.0301022,-27.0703684 67.9052243,-26.6649708 C66.7452134,-27.2496548 65.5210081,-27.6976204 64.2421375,-27.9212276 C61.3300737,-28.4305412 58.4827058,-27.8881748 55.6764623,-27.0808852 C55.3961138,-27.0002564 55.116016,-26.917374 54.8359183,-26.834742 C54.435707,-27.2977316 54.0603208,-27.7717388 53.7014848,-28.2141956 C53.0821101,-28.9779156 51.5951095,-28.3669396 51.6954131,-27.3853716 C51.7651241,-26.7080396 51.48954,-26.2207612 51.0459474,-25.874458 C50.5587228,-25.8033444 50.0877974,-25.78181 49.3776481,-25.7960828 C48.4390573,-25.8151132 48.0120148,-25.84441 47.0305443,-26.2265204 C46.5731599,-26.4043044 46.0036863,-26.8718012 45.7371296,-27.2914716 C44.7152868,-28.9007924 42.1196809,-29.3342348 40.8834392,-27.7997836 C39.5825018,-28.368442 37.9400306,-27.5841892 37.2178448,-26.4784228 C36.8399511,-25.9002492 36.0515649,-25.5769828 35.059061,-25.2990388 C34.3140561,-25.090706 33.5522504,-24.932954 32.7869341,-24.7949836 C32.4459019,-25.2569716 31.7277282,-25.5667164 31.2008837,-25.1793476 C30.8440537,-24.9161772 30.4975048,-24.6459956 30.1557203,-24.3690532 C27.5202437,-24.006474 24.8985588,-23.9934532 22.3857033,-25.0195924 C20.2582644,-25.8884804 18.3048521,-23.5154396 18.6559146,-21.5232572 C18.0397999,-21.2029956 17.3712765,-20.9899052 16.7626845,-20.6543692 C15.4349158,-19.9216988 14.3446159,-18.7635988 13.6801047,-17.4029252 C13.5609942,-17.159286 13.4534186,-16.9118908 13.3508582,-16.6632436 C12.8546062,-16.2598492 12.3638709,-15.8456876 11.8849213,-15.4087396 C11.0875078,-15.8168916 10.2926019,-16.2250436 9.49518846,-16.6331956 C8.89838215,-16.9386836 7.89283874,-16.7258436 7.77498203,-15.9345796 C7.58189763,-14.6324996 7.11297838,-13.5532756 6.44345197,-12.6493316 C4.26686424,-11.5075076 2.17302696,-10.2254596 0.169462902,-8.8006836 C-2.1350119,-8.0795316 -4.5849269,-7.6588596 -6.59852131,-7.1856036 C-7.28810844,-7.0228436 -7.66424687,-6.1239076 -7.27557049,-5.5254516 C-6.8643258,-4.8919396 -6.45308112,-4.2584276 -6.04434402,-3.6249156 C-7.19031245,-2.5081316 -8.26606837,-1.3412676 -9.28164214,-0.1343396 C-12.1076956,3.2210204 -14.4723525,6.8993964 -16.5887581,10.7956204 C-17.426293,11.1336604 -18.2638279,11.4691964 -19.1013628,11.8072364 C-19.9088067,12.1327564 -20.2724072,13.0692524 -19.6179263,13.7578524 C-19.3069852,14.0858764 -19.0286427,14.4314284 -18.7904217,14.7945084 C-19.9765116,16.7551404 -21.373239,18.5429964 -23.3266512,19.7148684 C-23.92095,20.0704364 -24.3673009,20.6288284 -24.6055219,21.2623404 C-24.8086367,21.3975564 -25.0092438,21.5427884 -25.2073434,21.6905244 C-25.7590131,22.1061884 -26.0925225,23.0126364 -25.4455644,23.5509964 C-24.9916907,23.9316044 -24.5654005,24.3823244 -24.2043076,24.8806204 C-24.1265723,25.1635724 -24.0463294,25.4490284 -23.9660866,25.7319804 C-25.7815814,27.3996444 -27.2911503,29.3377404 -28.4245808,31.5112124 C-28.6928929,31.4686444 -28.9687277,31.4961884 -29.1919032,31.6614524 C-31.2180356,33.1563404 -31.2782177,35.5376444 -30.4632511,37.6660444 C-30.9547387,40.8736684 -30.6387824,44.1614204 -29.6909135,47.2688844 C-30.9371855,48.5108684 -31.6869548,50.3037324 -31.9928808,52.0314924 C-32.5320125,55.0663404 -32.5696264,59.7337964 -32.7100514,62.8312444 C-34.0691649,64.1408364 -35.0370945,65.8360444 -35.5762262,67.6589564 C-36.0300999,67.8843164 -36.4839736,68.1096764 -36.9378474,68.3350364 C-37.3415693,68.5353564 -37.6374648,69.0637004 -37.6138712,69.5094124 C-37.4970398,71.6653564 -36.6068455,73.3680764 -35.4257709,74.9105404 C-35.0070034,76.0999404 -34.3876288,77.1966924 -33.5751698,78.2483724 C-33.0134697,78.9695244 -32.4643076,79.6606284 -31.9803428,80.4393724 C-31.930191,80.5169964 -31.9000999,80.5896124 -31.8775316,80.6396924 C-32.0681084,80.8450204 -32.2260866,81.1855644 -32.364004,81.4284524 C-33.5225104,83.4667084 -33.5400635,85.8555244 -31.8950848,87.6308604 C-32.5144594,88.1366684 -32.5345201,89.1583004 -31.9878656,89.7843004 C-28.429596,93.8432844 -25.4631175,98.7786684 -20.5256737,100.934612 C-20.5031054,100.972172 -20.4830447,101.009732 -20.4654916,101.047292 C-21.4660198,103.451132 -21.6014296,104.700628 -20.7839554,107.184596 C-20.7789403,107.207132 -20.7714175,107.227164 -20.7638947,107.2497 C-20.3275741,108.55178 -19.5251455,110.637612 -18.0782663,111.04326 C-17.621885,111.170964 -17.1730265,111.228556 -16.7291831,111.226052 C-15.5807071,112.330316 -14.4347387,113.437084 -13.2887702,114.543852 C-13.1884667,115.092228 -13.1257769,115.645612 -13.1057162,116.204004 C-13.0731175,117.137996 -12.1929536,117.894204 -11.2450848,117.618764 C-10.9115753,117.521108 -9.06598944,115.730748 -8.72746485,115.740764 C-8.55694876,115.911036 -8.39144784,116.081308 -8.22594693,116.254084 C-7.61660267,116.892604 -6.77154499,117.899212 -6.70133248,118.56778 C-6.56592265,119.827292 -5.73841809,121.269596 -4.40187286,121.525004 C-3.90035495,122.033316 -3.09792629,122.18606 -2.48356685,121.5225 C-2.44344542,121.479932 -2.40332398,121.437364 -2.36069496,121.399804 C-2.29549763,121.392292 -2.23280789,121.38478 -2.16761056,121.377268 C-1.871715,122.258676 -1.57581943,123.140084 -1.27741627,124.018988 C-0.693147905,125.751756 1.5386068,126.866036 3.1234034,125.85442 C3.37917753,126.007164 3.62993649,126.169924 3.88069545,126.332684 C4.26184906,126.575572 4.64801785,126.823468 5.044217,127.05634 C5.06678531,127.121444 5.08935361,127.186548 5.10941433,127.249148 C5.36518846,128.027892 6.42840644,128.44606 7.08288731,127.997844 C7.28600206,128.062948 7.494132,128.115532 7.70476952,128.1581 C8.81061651,128.375948 9.92398628,128.315852 10.9922194,127.947764 C11.7570342,127.687348 12.4867428,127.189052 13.3092322,127.121444 C13.3606378,127.117188 13.4135479,127.120693 13.4657058,127.119191 C14.1367367,128.491884 15.6701277,129.674773 16.8785352,130.076665 C18.4613257,130.603256 20.0812285,130.414956 21.522591,129.770176 C21.9115182,130.546666 22.3999966,131.28184 22.9835127,131.961676 C23.3069917,132.337276 23.8912601,132.257148 24.2247695,131.961676 C24.8581866,131.401031 25.4875916,130.837631 26.1159936,130.27348 C26.5708703,130.09845 27.03001,129.888364 27.5089596,129.693052 C29.0069936,129.082076 30.649214,128.828922 32.0346572,127.946012 C32.6923979,127.526842 33.3110203,126.991988 33.8205625,126.372248 C34.7804678,125.818864 35.662387,125.129512 36.4567914,124.3395 C36.8529905,124.342004 37.2667428,124.249356 37.6679571,124.046532 C39.3455345,123.195172 40.2282061,121.462404 40.3059413,119.689572 C41.6650549,116.496972 42.4674835,113.091532 42.6881514,109.605964 C42.7583639,108.461636 42.7709019,107.307292 42.6831362,106.162964 C42.6229541,105.356676 42.4198393,104.818316 42.1139134,104.089652 C42.0111022,103.851772 41.9183214,103.633924 41.8456013,103.39354 C41.8631545,102.622308 41.8731848,101.851076 41.8832152,101.082348 C42.0913451,100.433812 42.4624684,99.8303484 42.9790318,99.3220364 C43.7789529,98.5357804 44.145061,96.9031724 43.41786,95.9316204 C42.9439256,95.3031164 42.4724987,94.6746124 41.9985643,94.0461084 C42.1314665,91.3493004 42.7784247,87.0574444 41.3440834,86.6067244 C41.401758,86.2060844 41.5246299,85.8104524 41.5948424,85.4123164 C41.9308594,83.4992604 41.7302522,81.7890284 40.7121709,80.1163564 C40.4990257,79.7683004 40.3184793,79.4603084 40.1705315,79.1598284 C40.0777507,78.6089484 39.9849699,78.0580684 39.8921891,77.5071884 C39.7492565,76.6583324 39.6088315,75.8019644 39.4884672,74.9405884 C39.4257774,73.8438364 39.3681029,72.7470844 39.3054131,71.6478284 C39.2477386,70.6362124 39.1825412,69.6245964 39.1148363,68.6104764 C39.1424198,68.1572524 39.1825412,67.7040284 39.2402158,67.2508044 C39.5837556,64.5489884 40.6896026,63.5498924 42.605401,61.6718924 C42.9063117,61.6243164 43.2047149,61.5717324 43.4981029,61.5116364 C44.8647392,61.2286844 46.2940652,60.7904844 47.700823,60.9482364 C49.227945,61.1185084 50.5945813,61.7770604 52.0790743,60.9357164 C52.5153949,60.6853164 53.4758017,59.9942124 53.5585522,59.4458364 C53.5635673,59.4107804 53.5710901,59.3807324 53.5811205,59.3581964 C53.6839316,59.3431724 53.8168339,59.3306524 53.8995843,59.3281484 C55.0781514,59.2880844 56.2040591,59.7513244 57.3926566,59.6236204 C58.7994143,59.4733804 60.0582243,58.8498844 60.8857288,57.9259084 C61.9464392,58.1863244 63.0297179,58.3040124 64.1305497,58.1587804 C65.0533427,58.0385884 65.8808472,57.7381084 66.6983214,57.2923964 C67.2926202,56.9718844 67.1045509,56.8792364 67.751509,57.1396524 C69.2234641,57.7356044 70.5549942,58.5218604 72.2125109,58.1137084 C73.0726141,57.9033724 73.8148606,57.4401324 74.4392504,56.8166364 C74.5871982,56.6714044 74.8379571,56.4535564 75.0059656,56.2482284 C75.7933488,56.6463644 77.7743445,57.5453004 78.1003311,57.6254284 C79.0231241,57.8507884 80.001084,57.8157324 80.8988011,57.5152524 C81.5582971,57.2949004 82.365741,56.6939404 82.9449942,56.5712444 C83.6947634,56.4109884 85.3598029,57.4526524 86.2550124,57.8107244 C87.8247634,58.4392284 89.4872953,58.5944764 91.0771071,57.9459404 C91.6237616,57.7230844 92.6869796,56.8341644 93.0957167,56.8416764 C93.7602279,57.6604844 95.6158442,62.1401404 96.1725291,63.7752524 C98.4268521,70.3858124 99.0111205,91.0262844 97.9704708,96.2921964 C97.9303494,96.4474444 97.8877203,96.6001884 97.8450913,96.7554364 C96.5662206,101.335252 95.2346906,105.992692 93.0957167,110.259508 C91.0771071,114.280932 88.2861599,117.901716 84.2815394,120.097724 C80.1289711,122.376364 75.254217,122.97482 70.5850852,122.666828 C67.5784854,122.471516 64.6220373,121.868052 61.7132334,121.111844 C60.1936341,120.718716 58.6865728,120.280516 57.1870342,119.824788 C56.5325534,119.626972 55.8680421,119.441676 55.2260992,119.211308 C54.0926687,118.803156 53.49837,118.770604 52.4125837,119.29394 C51.4245934,119.7697 51.1713269,121.174444 51.6853828,122.058356 C52.5229177,123.50066 54.0575625,123.60082 55.5395479,124.021492 C57.0491168,124.449676 58.5637009,124.860332 60.0883154,125.22842 C63.0096572,125.92954 65.9786432,126.4679 68.9727052,126.715796 C74.3339316,127.164012 79.8581514,126.472908 84.7379207,124.136676 C85.2895904,123.871252 85.8211994,123.5883 86.3352553,123.282812 C86.1446784,123.548236 85.951594,123.81366 85.7560021,124.07658 C85.2143627,124.805244 85.615577,126.044724 86.3753767,126.44286 C86.6161053,126.56806 86.8568339,126.688252 87.1000701,126.80594 C87.1326687,126.883564 87.167775,126.961188 87.2078964,127.038812 C87.9024987,128.431036 89.3569007,129.252348 90.8388861,129.607916 C92.599214,130.028588 94.5701794,129.730612 96.3605983,129.678028 C98.0206226,129.627948 99.6806469,129.577868 101.338164,129.527788 C101.729348,129.517772 102.120532,129.505252 102.511715,129.492732 C104.482681,129.432636 106.451139,129.375044 108.419596,129.314948 C110.174909,129.262364 110.092159,129.39758 111.739645,128.69646 C112.474369,128.380956 113.07619,127.935244 113.582723,127.341796 C113.89868,127.201572 114.204606,127.041316 114.497994,126.858524 C115.440847,126.272588 116.278382,125.486332 117.05072,124.619948 C118.362189,125.033108 120.200252,124.649996 120.456026,123.004868 C120.867271,120.373164 124.292638,119.248868 125.892481,117.345828 C127.183889,115.810876 128.106682,113.800164 128.059038,111.86958 C131.313889,110.297068 133.084247,106.152948 133.498,102.637332 C133.691084,101.007228 133.660993,99.2619404 133.939335,97.6042924 C134.062207,97.4715804 134.172541,97.3313564 134.265322,97.1811164 C135.082796,95.8615084 135.794952,94.5018364 136.421849,93.1096124 C137.27443,92.4961324 138.300034,92.1180284 139.373282,92.0554284 C142.011266,91.9026844 142.507769,88.3495084 139.992657,87.4931404 C139.980119,87.4881324 139.970088,87.4856284 139.95755,87.4806204 C140.639615,85.7779004 140.58194,83.7621804 139.754436,82.1496044 C139.789542,81.9743244 139.82214,81.8015484 139.854739,81.6262684 C141.266512,80.1113484 142.076464,78.0054844 141.98619,75.9547084 C142.630641,75.5014844 143.352827,75.1509244 144.142717,74.9330764 C145.363913,74.5975404 145.371436,73.1101644 144.468704,72.4441004 C144.105103,72.1761724 143.804193,71.8631724 143.553434,71.5176204 C144.177824,69.6446284 143.93208,67.4786684 142.655717,65.9412124 C143.465668,64.9045564 144.27562,63.8679004 145.085571,62.8312444 C145.622195,62.1451484 145.905553,60.9807884 145.085571,60.3297484 C144.561485,59.9115804 144.037399,59.4959164 143.510805,59.0802524 Z" id="ðŸ–-Ink" fill="#000000"></path>
                    </g>
                    <g id="face/Smile" transform="translate(39.870674, 46.574400)" fill="#000000">
                        <path d="M36.7578944,60.328009 C35.0722236,59.6413244 33.5681791,58.4958892 32.4685774,57.0326699 C32.0862863,56.5239948 31.9871646,55.9868418 32.067361,55.4955467 C32.1575361,54.9431201 32.4848286,54.4424437 32.9311823,54.1066054 C33.3789185,53.7697269 33.9389796,53.6035867 34.4804419,53.6882802 C34.9509409,53.7618739 35.4193003,54.0191143 35.7899717,54.5526217 L35.8674142,54.6593105 C36.5211464,55.5424593 37.3730196,56.2670723 38.3436696,56.7341274 C39.2792185,57.1842925 40.3255353,57.3944019 41.4083024,57.2722189 C43.4705023,57.0396021 44.8918742,55.9259388 46.4026374,54.4136027 C46.5899009,54.2226665 46.7772844,54.0257446 46.9655762,53.8256529 C47.0844862,53.6442708 47.2495035,53.5276964 47.4327174,53.4665318 C47.6361441,53.3986193 47.866267,53.4024617 48.0770421,53.4759123 C48.2803356,53.5467557 48.4620699,53.6810008 48.5839276,53.8596723 C48.6997435,54.029485 48.7654076,54.2392656 48.7441012,54.4805653 C48.6058184,56.0478541 47.785247,57.4465926 46.6196595,58.5448977 C45.3251257,59.7647059 43.6091266,60.6085773 41.9935885,60.9045495 C40.2137398,61.2305742 38.4001214,60.9969962 36.7578944,60.328009 L36.7578944,60.328009 Z M42.8332164,36.1495355 C44.7267922,37.2988829 47.6120202,39.9789369 45.5749685,42.8283092 C43.1771637,45.3406948 39.7248663,42.4600731 38.023634,41.15728 C36.4461716,40.1476081 34.6738043,42.7444087 36.1373747,43.9233709 C48.4305154,53.011698 53.4193322,36.4500738 43.7909606,34.7981847 C42.7308423,34.6161536 42.3371117,35.7939723 42.8332164,36.1495355 Z M20.8037905,25.5774586 C21.0130058,22.9842471 24.9681444,22.3953754 25.3615852,24.9614746 C25.7139016,27.2601466 25.2991463,29.3717698 24.262258,31.4413258 C23.2715094,33.4184842 20.7813432,32.4960467 20.5930232,30.6956707 C20.3405881,28.2823415 20.6736466,27.1905845 20.8037905,25.5774586 Z M50.9108385,24.4293996 C51.4622574,23.7082476 52.2584171,23.2159612 53.2123042,23.4941556 C56.1925744,24.3637948 55.3141658,28.588794 54.2674979,30.6453292 C53.6987766,31.7621132 51.8604627,32.0453156 51.0296982,31.0619948 C49.6755999,29.4584332 49.0271372,26.2560676 50.7485974,24.6765444 C50.7952386,24.594914 50.8471457,24.5125324 50.9108385,24.4293996 Z M24.2202809,14.2303572 L24.6910485,14.148077 C26.1474061,13.896564 27.9582193,13.6548879 28.9884625,14.8240556 C29.5348662,15.444046 29.7229355,16.5963868 28.9884625,17.1898348 C27.6965523,18.2340028 26.2682293,17.8293564 24.7200435,17.9177476 C23.444182,17.9908644 22.2179707,18.2017012 20.989001,18.5525116 C18.2928407,19.3219908 16.0959415,20.7267348 13.793222,22.2691988 C13.4910575,22.471522 13.182624,22.0856556 13.3268104,21.8034548 C14.6560836,19.2035516 17.2321304,17.06789 19.81244,15.7660604 C21.1896082,15.0712004 22.6966695,14.4947796 24.2202809,14.2303572 Z M48.1940849,13.0657186 L48.5544079,13.1393565 C52.475585,13.9578161 57.5701119,15.5927563 59.4269784,19.4387638 C59.4977336,19.9826029 59.422974,20.0991585 59.3621811,20.1753092 L59.3419403,20.2006496 C59.2918468,20.2656779 59.2518761,20.3553191 59.0158148,20.4293365 C58.9503078,20.4137511 58.8841487,20.3972441 58.8172889,20.3797477 C57.9661338,20.1570104 57.2927054,19.8501586 56.6407554,19.5317631 L55.9338762,19.1840077 C55.1137551,18.7824617 54.286393,18.39553 53.409579,18.1098824 C51.5383829,17.5004226 49.6136967,17.0710962 47.6591912,16.8418457 C47.2355672,16.7921997 46.8276439,16.6494314 46.5058217,16.4047497 C46.2003479,16.1724977 45.9669855,15.8509394 45.8605853,15.4235184 C45.7226908,14.8703673 45.7623187,14.4515865 46.0595335,13.9525632 C46.2830208,13.5778074 46.6027952,13.3180527 46.9699772,13.1688927 C47.3443033,13.0168305 47.7704699,12.9809819 48.1940849,13.0657186 Z" id="ðŸ–-Ink"></path>
                    </g>
                    <g id="facial-hair/*-None" transform="translate(30.843352, 84.635200)"></g>
                    <g id="accessories/*-None" transform="translate(11.785671, 60.346400)"></g>
                </g>
            </g>
        </g>
    </g>
</svg>