<svg width="95" height="28" viewBox="0 0 95 28" fill="none" xmlns="http://www.w3.org/2000/svg">
<path d="M2.49805 18.0449C2.52148 18.5254 2.60938 18.9941 2.76172 19.4512C2.91406 19.9082 3.1543 20.3125 3.48242 20.6641C3.81055 21.0039 4.24414 21.2793 4.7832 21.4902C5.32227 21.6895 5.99609 21.7891 6.80469 21.7891C7.74219 21.7891 8.51562 21.666 9.125 21.4199C9.74609 21.1621 10.2324 20.8223 10.584 20.4004C10.9473 19.9785 11.1992 19.498 11.3398 18.959C11.4922 18.4199 11.5684 17.8633 11.5684 17.2891V8.9043C11.5684 8.27148 11.3633 7.82031 10.9531 7.55078C10.543 7.26953 9.7168 7.12891 8.47461 7.12891V0.607422H24.8047V7.12891C23.7734 7.12891 23.0352 7.26953 22.5898 7.55078C22.1562 7.82031 21.9395 8.3418 21.9395 9.11523V17.2539C21.9395 18.2617 21.7812 19.3516 21.4648 20.5234C21.1484 21.6953 20.5684 22.7734 19.7246 23.7578C18.8926 24.7422 17.7441 25.5684 16.2793 26.2363C14.8145 26.8926 12.9336 27.2207 10.6367 27.2207C8.46875 27.2207 6.69336 26.9219 5.31055 26.3242C3.93945 25.7266 2.86719 24.9883 2.09375 24.1094C1.33203 23.2305 0.804688 22.3047 0.511719 21.332C0.21875 20.3594 0.0722656 19.5156 0.0722656 18.8008C0.0722656 17.7695 0.224609 16.8555 0.529297 16.0586C0.833984 15.2617 1.22656 14.5996 1.70703 14.0723C2.1875 13.5449 2.74414 13.1523 3.37695 12.8945C4.00977 12.625 4.67188 12.4902 5.36328 12.4902C6.18359 12.4902 6.88086 12.6133 7.45508 12.8594C8.0293 13.0938 8.50391 13.4102 8.87891 13.8086C9.25391 14.207 9.52344 14.6582 9.6875 15.1621C9.86328 15.666 9.95117 16.1816 9.95117 16.709C9.95117 17.2832 9.85156 17.8105 9.65234 18.291C9.46484 18.7715 9.20703 19.1875 8.87891 19.5391C8.5625 19.8789 8.17578 20.1543 7.71875 20.3652C7.26172 20.5645 6.78125 20.6641 6.27734 20.6641C5.66797 20.6641 5.15234 20.5879 4.73047 20.4355C4.32031 20.2832 3.96875 20.084 3.67578 19.8379C3.39453 19.5801 3.1543 19.293 2.95508 18.9766C2.76758 18.6602 2.61523 18.3496 2.49805 18.0449ZM36.3008 17.9043C36.3477 19.6504 36.6758 20.8574 37.2852 21.5254C37.9062 22.1816 38.791 22.5098 39.9395 22.5098C40.3262 22.5098 40.7012 22.457 41.0645 22.3516C41.4395 22.2344 41.7852 22.0527 42.1016 21.8066C42.418 21.5488 42.6875 21.2148 42.9102 20.8047C43.1445 20.3828 43.2969 19.8555 43.3672 19.2227H49.7656C49.5312 20.7344 49.0977 22 48.4648 23.0195C47.8438 24.0391 47.041 24.8652 46.0566 25.498C45.0723 26.1191 43.9238 26.5645 42.6113 26.834C41.3105 27.1152 39.8574 27.2559 38.252 27.2559C36.5996 27.2559 35.0469 27.0449 33.5938 26.623C32.1406 26.2012 30.8633 25.5625 29.7617 24.707C28.6719 23.8398 27.8164 22.7559 27.1953 21.4551C26.5742 20.1426 26.2637 18.584 26.2637 16.7793C26.2637 15.0566 26.5566 13.5449 27.1426 12.2441C27.7285 10.9434 28.5488 9.85938 29.6035 8.99219C30.6699 8.11328 31.9238 7.45117 33.3652 7.00586C34.8184 6.56055 36.4121 6.33789 38.1465 6.33789C40.2793 6.33789 42.1133 6.61914 43.6484 7.18164C45.1836 7.74414 46.4375 8.5293 47.4102 9.53711C48.3828 10.5449 49.0977 11.7578 49.5547 13.1758C50.0117 14.5938 50.2285 16.1699 50.2051 17.9043H36.3008ZM38.9023 11.084C38.082 11.084 37.4727 11.377 37.0742 11.9629C36.6875 12.5371 36.4297 13.4922 36.3008 14.8281H41.4512C41.3809 13.6797 41.1348 12.7715 40.7129 12.1035C40.291 11.4238 39.6875 11.084 38.9023 11.084ZM61.7188 17.9043C61.7656 19.6504 62.0938 20.8574 62.7031 21.5254C63.3242 22.1816 64.209 22.5098 65.3574 22.5098C65.7441 22.5098 66.1191 22.457 66.4824 22.3516C66.8574 22.2344 67.2031 22.0527 67.5195 21.8066C67.8359 21.5488 68.1055 21.2148 68.3281 20.8047C68.5625 20.3828 68.7148 19.8555 68.7852 19.2227H75.1836C74.9492 20.7344 74.5156 22 73.8828 23.0195C73.2617 24.0391 72.459 24.8652 71.4746 25.498C70.4902 26.1191 69.3418 26.5645 68.0293 26.834C66.7285 27.1152 65.2754 27.2559 63.6699 27.2559C62.0176 27.2559 60.4648 27.0449 59.0117 26.623C57.5586 26.2012 56.2812 25.5625 55.1797 24.707C54.0898 23.8398 53.2344 22.7559 52.6133 21.4551C51.9922 20.1426 51.6816 18.584 51.6816 16.7793C51.6816 15.0566 51.9746 13.5449 52.5605 12.2441C53.1465 10.9434 53.9668 9.85938 55.0215 8.99219C56.0879 8.11328 57.3418 7.45117 58.7832 7.00586C60.2363 6.56055 61.8301 6.33789 63.5645 6.33789C65.6973 6.33789 67.5312 6.61914 69.0664 7.18164C70.6016 7.74414 71.8555 8.5293 72.8281 9.53711C73.8008 10.5449 74.5156 11.7578 74.9727 13.1758C75.4297 14.5938 75.6465 16.1699 75.623 17.9043H61.7188ZM64.3203 11.084C63.5 11.084 62.8906 11.377 62.4922 11.9629C62.1055 12.5371 61.8477 13.4922 61.7188 14.8281H66.8691C66.7988 13.6797 66.5527 12.7715 66.1309 12.1035C65.709 11.4238 65.1055 11.084 64.3203 11.084ZM89.4043 0.607422V7.12891H94.6602V13.6504H89.4043V19.0469C89.4043 19.8203 89.5098 20.4531 89.7207 20.9453C89.9434 21.4375 90.3945 21.6836 91.0742 21.6836C91.4492 21.6836 91.748 21.6133 91.9707 21.4727C92.2051 21.3203 92.3867 21.127 92.5156 20.8926C92.6562 20.6465 92.7441 20.3711 92.7793 20.0664C92.8145 19.75 92.832 19.4102 92.832 19.0469V16.4277H94.8535V19.2578C94.8535 20.3945 94.7305 21.4551 94.4844 22.4395C94.25 23.4238 93.8398 24.2734 93.2539 24.9883C92.6797 25.7031 91.8945 26.2715 90.8984 26.6934C89.9023 27.1152 88.6484 27.3262 87.1367 27.3262C85.4609 27.3262 84.125 27.1211 83.1289 26.7109C82.1328 26.3008 81.377 25.7383 80.8613 25.0234C80.3457 24.3086 80.0059 23.459 79.8418 22.4746C79.6895 21.4902 79.6133 20.418 79.6133 19.2578V13.6504H76.8535V7.84961C77.7324 7.84961 78.5469 7.66211 79.2969 7.28711C80.0586 6.90039 80.709 6.37305 81.248 5.70508C81.7988 5.02539 82.2207 4.25195 82.5137 3.38477C82.8184 2.51758 82.9707 1.5918 82.9707 0.607422H89.4043Z" fill="#565F75"/>
</svg>
